<?xml version="1.0" standalone="no"?>
<!DOCTYPE svg PUBLIC "-//W3C//DTD SVG 20010904//EN"
 "http://www.w3.org/TR/2001/REC-SVG-20010904/DTD/svg10.dtd">
<svg version="1.0" xmlns="http://www.w3.org/2000/svg"
 width="600.000000pt" height="600.000000pt" viewBox="0 0 600.000000 600.000000"
 preserveAspectRatio="xMidYMid meet">
<metadata>
Created by potrace 1.13, written by Peter Selinger 2001-2015
</metadata>
<g transform="translate(0.000000,600.000000) scale(0.100000,-0.100000)"
fill="#000000" stroke="none">
<path d="M2091 4134 c-244 -65 -385 -309 -368 -634 7 -125 25 -200 72 -296
104 -214 357 -311 607 -234 157 48 269 177 319 367 28 102 30 305 5 407 -50
207 -192 357 -374 395 -72 15 -195 13 -261 -5z m250 -197 c58 -31 112 -104
141 -191 19 -58 23 -93 23 -191 0 -129 -13 -201 -51 -277 -66 -131 -209 -182
-332 -119 -114 59 -167 199 -160 421 7 188 55 296 158 354 62 35 158 36 221 3z"/>
<path d="M3356 3788 c-121 -200 -424 -703 -674 -1118 -250 -415 -463 -770
-474 -787 l-20 -33 119 0 119 0 218 363 c121 199 424 702 674 1117 250 415
463 770 474 788 l20 32 -119 0 -119 0 -218 -362z"/>
<path d="M3675 3049 c-202 -34 -337 -166 -396 -386 -30 -111 -30 -316 0 -427
66 -246 242 -386 486 -386 206 0 356 91 443 270 96 196 93 500 -6 684 -101
187 -307 282 -527 245z m210 -214 c91 -53 144 -169 152 -336 12 -221 -48 -378
-169 -440 -49 -25 -148 -25 -204 0 -117 53 -185 232 -170 450 17 239 125 370
294 357 33 -3 70 -15 97 -31z"/>
</g>
</svg>
